<mxfile host="app.diagrams.net" modified="2020-04-23T01:39:25.540Z" agent="5.0 (Windows NT 10.0; Win64; x64) AppleWebKit/537.36 (KHTML, like Gecko) Chrome/80.0.3987.122 Safari/537.36" etag="Uy5KF6QzXubOzQIvyJBu" version="13.0.1" type="github">
  <diagram id="yZTCzxk4EB5MQgnqFoLM" name="微服务">
    <mxGraphModel dx="868" dy="482" grid="1" gridSize="10" guides="1" tooltips="1" connect="1" arrows="1" fold="1" page="1" pageScale="1" pageWidth="827" pageHeight="1169" math="0" shadow="0">
      <root>
        <mxCell id="0" />
        <mxCell id="1" parent="0" />
        <mxCell id="MifOKiTGiRudrYGWb6wq-3" value="" style="edgeStyle=orthogonalEdgeStyle;rounded=0;orthogonalLoop=1;jettySize=auto;html=1;startArrow=classic;startFill=1;" edge="1" parent="1" source="MifOKiTGiRudrYGWb6wq-1" target="MifOKiTGiRudrYGWb6wq-2">
          <mxGeometry relative="1" as="geometry" />
        </mxCell>
        <mxCell id="MifOKiTGiRudrYGWb6wq-5" value="" style="edgeStyle=orthogonalEdgeStyle;rounded=0;orthogonalLoop=1;jettySize=auto;html=1;startArrow=classic;startFill=1;" edge="1" parent="1" source="MifOKiTGiRudrYGWb6wq-1" target="MifOKiTGiRudrYGWb6wq-4">
          <mxGeometry relative="1" as="geometry" />
        </mxCell>
        <mxCell id="MifOKiTGiRudrYGWb6wq-7" value="" style="edgeStyle=orthogonalEdgeStyle;rounded=0;orthogonalLoop=1;jettySize=auto;html=1;startArrow=classic;startFill=1;" edge="1" parent="1" source="MifOKiTGiRudrYGWb6wq-1" target="MifOKiTGiRudrYGWb6wq-6">
          <mxGeometry relative="1" as="geometry" />
        </mxCell>
        <mxCell id="MifOKiTGiRudrYGWb6wq-9" value="" style="edgeStyle=orthogonalEdgeStyle;rounded=0;orthogonalLoop=1;jettySize=auto;html=1;startArrow=classic;startFill=1;" edge="1" parent="1" source="MifOKiTGiRudrYGWb6wq-1" target="MifOKiTGiRudrYGWb6wq-8">
          <mxGeometry relative="1" as="geometry" />
        </mxCell>
        <mxCell id="MifOKiTGiRudrYGWb6wq-1" value="订阅发布微服务" style="rounded=0;whiteSpace=wrap;html=1;" vertex="1" parent="1">
          <mxGeometry x="360" y="40" width="120" height="40" as="geometry" />
        </mxCell>
        <mxCell id="MifOKiTGiRudrYGWb6wq-20" value="" style="edgeStyle=orthogonalEdgeStyle;rounded=0;orthogonalLoop=1;jettySize=auto;html=1;startArrow=classic;startFill=1;" edge="1" parent="1" source="MifOKiTGiRudrYGWb6wq-8" target="MifOKiTGiRudrYGWb6wq-19">
          <mxGeometry relative="1" as="geometry" />
        </mxCell>
        <mxCell id="MifOKiTGiRudrYGWb6wq-8" value="MAC采集微服务" style="rounded=0;whiteSpace=wrap;html=1;" vertex="1" parent="1">
          <mxGeometry x="200" y="40" width="120" height="40" as="geometry" />
        </mxCell>
        <mxCell id="MifOKiTGiRudrYGWb6wq-22" value="" style="edgeStyle=orthogonalEdgeStyle;rounded=0;orthogonalLoop=1;jettySize=auto;html=1;startArrow=classic;startFill=1;" edge="1" parent="1" source="MifOKiTGiRudrYGWb6wq-19" target="MifOKiTGiRudrYGWb6wq-21">
          <mxGeometry relative="1" as="geometry" />
        </mxCell>
        <mxCell id="MifOKiTGiRudrYGWb6wq-19" value="手机号关联微服务" style="rounded=0;whiteSpace=wrap;html=1;" vertex="1" parent="1">
          <mxGeometry x="40" y="40" width="120" height="40" as="geometry" />
        </mxCell>
        <mxCell id="MifOKiTGiRudrYGWb6wq-21" value="人号关联微服务" style="rounded=0;whiteSpace=wrap;html=1;" vertex="1" parent="1">
          <mxGeometry x="40" y="160" width="120" height="40" as="geometry" />
        </mxCell>
        <mxCell id="MifOKiTGiRudrYGWb6wq-18" value="" style="edgeStyle=orthogonalEdgeStyle;rounded=0;orthogonalLoop=1;jettySize=auto;html=1;startArrow=classic;startFill=1;" edge="1" parent="1" source="MifOKiTGiRudrYGWb6wq-6" target="MifOKiTGiRudrYGWb6wq-17">
          <mxGeometry relative="1" as="geometry" />
        </mxCell>
        <mxCell id="MifOKiTGiRudrYGWb6wq-6" value="RFID采集微服务" style="rounded=0;whiteSpace=wrap;html=1;" vertex="1" parent="1">
          <mxGeometry x="520" y="40" width="120" height="40" as="geometry" />
        </mxCell>
        <mxCell id="MifOKiTGiRudrYGWb6wq-17" value="人卡关联微服务" style="rounded=0;whiteSpace=wrap;html=1;" vertex="1" parent="1">
          <mxGeometry x="680" y="40" width="120" height="40" as="geometry" />
        </mxCell>
        <mxCell id="MifOKiTGiRudrYGWb6wq-14" value="" style="edgeStyle=orthogonalEdgeStyle;rounded=0;orthogonalLoop=1;jettySize=auto;html=1;startArrow=classic;startFill=1;" edge="1" parent="1" source="MifOKiTGiRudrYGWb6wq-4" target="MifOKiTGiRudrYGWb6wq-13">
          <mxGeometry relative="1" as="geometry" />
        </mxCell>
        <mxCell id="MifOKiTGiRudrYGWb6wq-4" value="人脸采集微服务" style="rounded=0;whiteSpace=wrap;html=1;" vertex="1" parent="1">
          <mxGeometry x="280" y="160" width="120" height="40" as="geometry" />
        </mxCell>
        <mxCell id="MifOKiTGiRudrYGWb6wq-13" value="人脸比对微服务" style="rounded=0;whiteSpace=wrap;html=1;" vertex="1" parent="1">
          <mxGeometry x="280" y="280" width="120" height="40" as="geometry" />
        </mxCell>
        <mxCell id="MifOKiTGiRudrYGWb6wq-16" value="" style="edgeStyle=orthogonalEdgeStyle;rounded=0;orthogonalLoop=1;jettySize=auto;html=1;startArrow=classic;startFill=1;" edge="1" parent="1" source="MifOKiTGiRudrYGWb6wq-2" target="MifOKiTGiRudrYGWb6wq-15">
          <mxGeometry relative="1" as="geometry" />
        </mxCell>
        <mxCell id="MifOKiTGiRudrYGWb6wq-2" value="车辆采集微服务" style="rounded=0;whiteSpace=wrap;html=1;" vertex="1" parent="1">
          <mxGeometry x="440" y="160" width="120" height="40" as="geometry" />
        </mxCell>
        <mxCell id="MifOKiTGiRudrYGWb6wq-15" value="人车关联微服务" style="rounded=0;whiteSpace=wrap;html=1;" vertex="1" parent="1">
          <mxGeometry x="440" y="280" width="120" height="40" as="geometry" />
        </mxCell>
      </root>
    </mxGraphModel>
  </diagram>
</mxfile>
